<svg xmlns="http://www.w3.org/2000/svg" viewBox="0 0 64 64" width="64" height="64">
  <!-- selo/sticker vermelho da marca -->
  <rect x="2" y="2" width="60" height="60" rx="16" fill="#ea0000"/>
  <rect x="2" y="2" width="60" height="60" rx="16" fill="none" stroke="#fff" stroke-width="3" opacity=".25"/>
  <!-- bola -->
  <circle cx="32" cy="32" r="19" fill="#fff"/>
  <!-- pentágono central -->
  <path d="M32 23.5l7.2 5.2-2.75 8.45h-8.9L24.8 28.7z" fill="#111"/>
  <!-- gomos pretos nas bordas -->
  <path d="M32 13.5l4.4 3.4-1.7 5.1h-5.4l-1.7-5.1z" fill="#111"/>
  <path d="M14.8 25.6l5.1 1 .9 5.3-4.3 3.2-4-3.3z" fill="#111"/>
  <path d="M49.2 25.6l2.3 6.2-4 3.3-4.3-3.2.9-5.3z" fill="#111"/>
  <path d="M22.4 44.6l4.2 3.3-1.5 5-5.4-1.1-1-5.3z" fill="#111"/>
  <path d="M41.6 44.6l3.7 1.9-1 5.3-5.4 1.1-1.5-5z" fill="#111"/>
  <!-- estrelinha de campeão -->
  <path d="M48 11l1.5 3.3 3.6.4-2.7 2.4.8 3.5L48 19.3 44.8 21l.8-3.5-2.7-2.4 3.6-.4z" fill="#ffcf3f"/>
</svg>
